<?xml version="1.0" standalone="no"?>
<!DOCTYPE svg PUBLIC "-//W3C//DTD SVG 20010904//EN"
 "http://www.w3.org/TR/2001/REC-SVG-20010904/DTD/svg10.dtd">
<svg version="1.0" xmlns="http://www.w3.org/2000/svg"
 width="1536.000000pt" height="1536.000000pt" viewBox="0 0 1536.000000 1536.000000"
 preserveAspectRatio="xMidYMid meet">

<g transform="translate(0.000000,1536.000000) scale(0.100000,-0.100000)"
fill="#000000" stroke="none">
<path d="M3070 13096 c-14 -8 -36 -15 -49 -16 -26 0 -107 -36 -117 -51 -3 -5
-14 -9 -24 -9 -30 0 -200 -178 -237 -249 -18 -33 -33 -70 -33 -81 0 -12 -7
-31 -14 -43 -12 -17 -17 -91 -25 -327 -5 -184 -6 -311 0 -322 17 -32 10 -118
-12 -149 l-20 -29 -538 0 c-457 0 -540 -2 -557 -15 -10 -8 -33 -15 -50 -15
-17 0 -37 -7 -44 -15 -7 -8 -19 -15 -26 -15 -34 0 -101 -49 -184 -136 -49 -52
-90 -101 -90 -108 0 -8 -7 -19 -15 -26 -8 -7 -15 -24 -15 -39 0 -14 -7 -35
-15 -45 -8 -11 -15 -37 -15 -57 0 -21 -7 -64 -15 -96 -13 -50 -15 -549 -14
-4203 0 -2662 4 -4163 10 -4195 5 -27 13 -85 17 -127 4 -43 13 -83 20 -90 6
-6 12 -21 12 -32 0 -33 86 -159 152 -222 168 -160 390 -230 618 -193 36 6 163
49 290 99 313 123 469 174 725 238 496 125 842 170 1380 179 359 6 489 -2 810
-48 234 -33 525 -98 760 -171 72 -22 150 -46 175 -53 55 -16 354 -128 413
-154 23 -11 70 -31 105 -46 97 -40 184 -80 347 -162 240 -120 324 -168 593
-340 90 -57 184 -111 210 -119 105 -32 178 -11 338 94 662 437 1431 757 2174
905 402 81 630 101 1060 94 574 -8 932 -58 1495 -207 195 -51 345 -103 657
-226 208 -82 288 -100 413 -91 147 10 284 62 404 152 107 81 194 210 238 351
17 57 18 217 18 4344 l0 4285 -22 70 c-32 101 -88 187 -169 265 -76 72 -181
140 -217 140 -12 1 -33 7 -47 15 -21 12 -115 14 -557 15 -343 0 -534 4 -538
10 -3 6 -15 10 -25 10 -18 0 -19 16 -22 383 l-3 382 -28 80 c-33 92 -96 192
-160 252 -49 46 -149 113 -169 113 -7 0 -22 7 -32 15 -11 8 -30 15 -42 15 -12
0 -35 7 -50 15 -39 20 -277 20 -399 0 -52 -8 -158 -15 -250 -15 -104 0 -181
-5 -220 -15 -33 -8 -105 -15 -160 -15 -60 -1 -116 -7 -140 -15 -22 -8 -71 -15
-110 -15 -41 -1 -80 -7 -95 -15 -16 -9 -55 -15 -105 -15 -50 0 -89 -6 -105
-15 -14 -8 -52 -15 -85 -15 -33 0 -71 -7 -85 -15 -14 -8 -50 -14 -81 -15 -38
0 -61 -5 -69 -15 -8 -9 -30 -15 -59 -15 -25 0 -55 -7 -65 -15 -11 -8 -40 -15
-65 -15 -25 0 -55 -7 -65 -15 -11 -8 -38 -15 -60 -15 -23 -1 -52 -7 -66 -15
-14 -8 -39 -14 -56 -15 -17 0 -37 -7 -44 -15 -7 -8 -27 -15 -44 -15 -18 0 -41
-7 -52 -15 -10 -8 -33 -15 -50 -15 -17 0 -37 -7 -44 -15 -7 -8 -27 -15 -44
-15 -17 0 -40 -7 -50 -15 -11 -8 -30 -15 -42 -15 -12 0 -27 -7 -34 -15 -7 -8
-22 -15 -34 -15 -12 0 -31 -7 -42 -15 -10 -8 -30 -15 -44 -15 -14 0 -34 -7
-44 -15 -11 -8 -30 -15 -42 -15 -12 0 -27 -7 -34 -15 -7 -8 -20 -15 -29 -15
-10 0 -44 -13 -76 -30 -32 -16 -64 -30 -71 -30 -6 0 -17 -7 -24 -15 -7 -8 -23
-15 -35 -15 -12 0 -28 -7 -35 -15 -7 -8 -20 -15 -30 -15 -10 0 -23 -7 -30 -15
-7 -8 -20 -15 -30 -15 -10 0 -23 -7 -30 -15 -7 -8 -19 -15 -26 -15 -8 0 -43
-20 -80 -45 -36 -25 -69 -45 -75 -45 -5 0 -38 -20 -75 -45 -36 -25 -70 -45
-76 -45 -5 0 -27 -13 -48 -30 -21 -16 -42 -30 -47 -30 -5 0 -22 -13 -38 -30
-16 -16 -32 -30 -37 -30 -10 0 -114 -74 -186 -132 -29 -24 -58 -45 -65 -47
-17 -6 -137 -120 -310 -295 -82 -82 -160 -156 -174 -163 -25 -13 -29 -10 -167
130 -178 181 -372 348 -586 503 -30 22 -71 52 -91 66 -41 30 -263 166 -294
179 -11 5 -36 19 -55 31 -68 41 -285 148 -301 148 -9 0 -22 7 -29 15 -7 8 -18
15 -25 15 -8 0 -26 7 -42 15 -66 34 -164 75 -181 75 -9 0 -26 7 -36 15 -11 8
-29 15 -40 15 -12 0 -30 7 -40 15 -11 8 -31 15 -45 15 -14 0 -35 7 -45 15 -11
8 -27 15 -37 15 -9 0 -30 7 -45 15 -16 8 -39 15 -50 15 -12 0 -35 7 -50 15
-16 8 -42 15 -59 15 -16 0 -39 7 -49 15 -11 8 -34 15 -50 15 -17 0 -40 7 -50
15 -11 8 -32 15 -47 15 -14 0 -43 7 -62 15 -20 8 -49 15 -65 15 -16 0 -46 7
-65 15 -20 8 -58 15 -85 15 -32 0 -54 5 -62 15 -8 9 -30 15 -60 15 -26 0 -61
7 -76 15 -16 8 -51 15 -77 15 -27 0 -58 5 -69 11 -12 7 -58 15 -102 19 -45 5
-99 13 -121 19 -22 6 -69 11 -105 11 -36 0 -87 7 -114 15 -28 9 -90 15 -145
15 -53 1 -123 7 -156 15 -37 9 -113 15 -195 15 -74 0 -153 5 -175 10 -22 6
-134 13 -250 16 -176 4 -214 2 -235 -10z m9059 -622 c20 -4 31 -12 31 -23 0
-9 5 -22 10 -27 7 -7 9 -1223 6 -3720 -2 -2040 -5 -3718 -6 -3729 -1 -11 1
-55 5 -97 9 -90 -4 -134 -44 -150 -14 -6 -102 -12 -196 -14 -93 -3 -203 -11
-244 -19 -40 -8 -119 -15 -176 -15 -66 0 -118 -5 -145 -15 -24 -9 -77 -15
-124 -15 -52 0 -91 -5 -110 -15 -15 -8 -52 -15 -80 -15 -30 0 -60 -6 -72 -15
-12 -9 -43 -14 -85 -15 -41 0 -72 -5 -85 -15 -10 -8 -41 -15 -69 -15 -27 0
-61 -7 -75 -15 -14 -8 -45 -15 -70 -15 -25 0 -54 -7 -64 -15 -11 -8 -34 -15
-50 -15 -17 0 -40 -7 -50 -15 -11 -8 -39 -15 -62 -15 -25 0 -47 -6 -54 -15 -7
-8 -29 -15 -49 -15 -21 0 -46 -7 -57 -15 -10 -8 -31 -15 -45 -15 -14 0 -34 -7
-45 -15 -10 -8 -31 -15 -45 -15 -14 0 -34 -7 -45 -15 -10 -8 -30 -15 -44 -15
-14 0 -34 -7 -44 -15 -11 -8 -28 -15 -39 -15 -10 0 -31 -6 -45 -13 -15 -8 -42
-21 -60 -30 -19 -9 -42 -17 -52 -17 -9 0 -23 -7 -30 -15 -7 -8 -22 -15 -34
-15 -12 0 -31 -7 -42 -15 -10 -8 -29 -15 -40 -15 -12 0 -27 -7 -34 -15 -7 -8
-20 -15 -30 -15 -10 0 -23 -7 -30 -15 -7 -8 -20 -15 -30 -15 -10 0 -23 -7 -30
-15 -7 -8 -20 -15 -30 -15 -10 0 -23 -7 -30 -15 -7 -8 -20 -15 -30 -15 -10 0
-23 -7 -30 -15 -7 -8 -20 -15 -30 -15 -10 0 -23 -7 -30 -15 -7 -8 -20 -15 -30
-15 -10 0 -23 -7 -30 -15 -7 -8 -20 -15 -30 -15 -10 0 -23 -7 -30 -15 -7 -8
-17 -15 -22 -15 -6 0 -27 -13 -48 -30 -21 -17 -45 -30 -53 -30 -8 0 -20 -7
-27 -15 -7 -8 -17 -15 -22 -15 -6 0 -27 -13 -48 -30 -21 -16 -44 -30 -52 -30
-8 0 -27 -13 -43 -30 -16 -16 -34 -30 -40 -30 -5 0 -33 -20 -62 -45 -28 -25
-58 -45 -67 -45 -8 0 -19 -6 -23 -13 -10 -16 -88 -77 -99 -77 -5 -1 -29 -21
-54 -45 -25 -25 -50 -45 -57 -45 -13 0 -182 -159 -291 -272 -30 -32 -62 -58
-70 -58 -9 0 -29 -12 -44 -27 l-28 -27 0 3864 0 3863 57 71 c84 105 422 440
543 538 539 436 1167 711 2010 882 365 74 810 127 1300 155 80 4 155 9 166 9
12 1 36 -1 53 -4z m-8319 -29 c414 -38 691 -78 1035 -150 149 -32 320 -73 390
-95 17 -6 86 -27 155 -49 764 -238 1355 -618 1869 -1201 46 -52 88 -106 93
-120 6 -14 15 -34 19 -45 7 -15 7 -7276 0 -7415 -1 -14 1 -65 5 -113 4 -60 2
-93 -5 -100 -6 -6 -11 -22 -11 -35 0 -21 -20 -5 -126 97 -107 103 -276 250
-376 326 -14 11 -71 54 -125 95 -54 41 -106 80 -115 85 -9 6 -51 34 -93 62
-41 29 -77 53 -79 53 -2 0 -34 20 -72 45 -37 25 -72 45 -78 45 -5 0 -17 7 -26
15 -28 25 -278 155 -425 220 -120 54 -151 68 -177 81 -14 8 -33 14 -41 14 -9
0 -30 8 -49 17 -18 9 -45 22 -60 30 -14 7 -34 13 -45 13 -10 0 -27 7 -37 15
-11 8 -31 15 -45 15 -14 0 -35 7 -45 15 -11 8 -32 15 -46 15 -14 0 -31 5 -37
11 -6 6 -26 14 -44 19 -19 4 -47 13 -64 18 -95 32 -133 42 -160 42 -16 1 -39
7 -49 15 -11 8 -38 15 -60 15 -23 0 -50 7 -60 15 -11 8 -36 15 -57 15 -20 0
-50 7 -65 15 -16 8 -43 15 -60 15 -17 0 -48 7 -67 15 -20 8 -56 15 -79 15 -24
0 -61 7 -83 15 -22 8 -65 14 -96 15 -31 0 -73 7 -92 15 -21 9 -67 15 -111 15
-41 0 -87 5 -103 12 -15 6 -77 15 -138 19 -60 4 -130 12 -155 18 -25 5 -127
10 -227 11 -142 0 -194 4 -238 17 l-55 17 0 3865 0 3864 223 -7 c122 -3 296
-13 387 -21z m-1250 -1264 c0 -11 5 -23 10 -26 7 -4 10 -1067 10 -3290 -1
-2941 1 -3287 15 -3314 8 -17 15 -37 15 -46 0 -52 116 -205 205 -272 143 -107
221 -128 542 -142 233 -11 304 -17 548 -47 869 -108 1596 -352 2195 -737 118
-76 369 -252 380 -266 3 -4 50 -45 105 -93 117 -100 161 -145 130 -134 -11 5
-62 23 -114 42 -52 18 -99 38 -105 44 -5 5 -22 10 -37 10 -15 0 -32 7 -39 15
-7 8 -22 15 -34 15 -11 0 -30 7 -40 15 -11 8 -29 15 -40 15 -11 0 -27 6 -35
13 -9 7 -43 22 -76 31 -33 10 -75 25 -93 32 -18 8 -45 14 -60 14 -15 0 -36 7
-46 15 -11 8 -31 15 -45 15 -14 0 -35 7 -45 15 -11 8 -29 15 -40 15 -12 0 -39
7 -61 15 -22 8 -58 14 -80 15 -22 0 -49 7 -59 15 -11 8 -38 15 -60 15 -23 0
-50 7 -60 15 -11 8 -36 15 -57 15 -20 0 -53 7 -72 15 -20 8 -54 15 -75 15 -22
0 -56 7 -75 15 -21 8 -67 15 -105 15 -38 0 -89 7 -112 15 -26 9 -78 15 -135
15 -60 0 -105 5 -128 15 -54 22 -1030 22 -1084 0 -23 -10 -70 -15 -137 -15
-69 -1 -109 -5 -126 -15 -16 -9 -56 -15 -115 -15 -59 0 -99 -6 -115 -15 -14
-8 -53 -15 -90 -15 -37 0 -76 -7 -90 -15 -14 -8 -45 -15 -70 -15 -25 0 -56 -7
-70 -15 -14 -8 -41 -15 -60 -15 -19 0 -46 -7 -60 -15 -14 -8 -43 -14 -66 -15
-22 0 -49 -7 -60 -15 -10 -8 -37 -15 -60 -15 -22 0 -49 -7 -60 -15 -10 -8 -35
-15 -55 -15 -19 0 -44 -7 -55 -15 -10 -8 -31 -15 -45 -15 -14 0 -34 -7 -45
-15 -10 -8 -35 -15 -55 -15 -20 0 -42 -7 -49 -15 -7 -8 -27 -15 -45 -15 -18 0
-38 -7 -45 -15 -7 -8 -24 -15 -37 -15 -14 0 -37 -6 -51 -13 -15 -8 -42 -21
-60 -30 -19 -9 -41 -17 -50 -17 -9 0 -26 -7 -36 -15 -11 -8 -30 -15 -42 -15
-12 0 -27 -7 -34 -15 -7 -8 -18 -15 -25 -15 -7 0 -18 -7 -25 -15 -17 -21 -118
-20 -148 1 l-22 15 0 4175 0 4174 480 0 c468 0 480 0 480 -19z m11204 -3 c11
-42 7 -8318 -4 -8339 -13 -24 -93 -27 -137 -5 -33 16 -58 27 -133 56 -30 12
-70 28 -88 36 -18 8 -40 14 -50 14 -9 0 -26 7 -36 15 -11 8 -29 15 -40 15 -12
0 -30 7 -40 15 -11 8 -29 15 -41 15 -12 0 -25 4 -30 9 -6 6 -28 14 -50 20 -96
24 -132 35 -162 47 -17 8 -40 14 -51 14 -11 0 -33 7 -48 15 -16 8 -41 15 -55
15 -15 0 -40 7 -55 15 -16 8 -43 15 -60 15 -17 0 -48 7 -67 15 -20 8 -53 15
-74 15 -21 1 -49 7 -63 15 -14 8 -45 14 -70 15 -26 0 -51 5 -57 11 -6 6 -39
13 -74 16 -35 3 -83 11 -107 19 -23 8 -68 14 -100 14 -31 0 -79 7 -106 15 -30
9 -90 15 -156 15 -71 0 -122 5 -151 15 -37 14 -119 16 -549 15 -342 0 -518 -4
-545 -11 -22 -6 -78 -14 -125 -18 -47 -3 -95 -12 -107 -19 -12 -6 -55 -12 -95
-12 -44 -1 -83 -6 -98 -15 -14 -8 -53 -15 -90 -15 -37 0 -76 -7 -90 -15 -14
-8 -45 -15 -70 -15 -25 0 -54 -7 -64 -15 -11 -8 -36 -15 -55 -15 -20 0 -45 -7
-55 -15 -11 -8 -41 -15 -66 -15 -25 0 -55 -7 -66 -15 -10 -8 -37 -15 -59 -15
-22 0 -53 -7 -69 -15 -15 -8 -36 -15 -45 -15 -9 0 -25 -7 -35 -15 -11 -8 -29
-15 -41 -15 -12 0 -30 -7 -41 -15 -10 -8 -35 -15 -54 -15 -19 0 -44 -7 -54
-15 -11 -8 -27 -15 -37 -15 -9 0 -22 -7 -29 -15 -7 -8 -22 -15 -34 -15 -11 0
-30 -7 -40 -15 -11 -8 -27 -15 -37 -15 -9 0 -22 -7 -29 -15 -7 -8 -23 -15 -35
-15 -12 0 -28 -7 -35 -15 -7 -8 -21 -15 -32 -15 -10 0 -31 -6 -46 -14 -15 -8
-50 -17 -77 -21 -28 -4 -65 -14 -84 -21 -47 -20 -49 -18 -15 17 83 88 350 297
546 427 731 487 1696 771 2798 822 298 14 361 27 481 97 153 89 257 229 299
404 20 83 20 112 20 3347 l0 3262 479 0 479 0 6 -22z"/>
</g>
</svg>
